Coordinates
version=1
nRows=7
nColumns=40
inDegrees=yes

Units are S.I. units (second, meters, Newtons, ...)
Angles are in degrees.

endheader
time	pelvis_tilt	pelvis_list	pelvis_rotation	pelvis_tx	pelvis_ty	pelvis_tz	hip_flexion_r	hip_adduction_r	hip_rotation_r	knee_angle_r	knee_angle_r_beta	ankle_angle_r	subtalar_angle_r	mtp_angle_r	hip_flexion_l	hip_adduction_l	hip_rotation_l	knee_angle_l	knee_angle_l_beta	ankle_angle_l	subtalar_angle_l	mtp_angle_l	lumbar_extension	lumbar_bending	lumbar_rotation	arm_flex_r	arm_add_r	arm_rot_r	elbow_flex_r	pro_sup_r	wrist_flex_r	wrist_dev_r	arm_flex_l	arm_add_l	arm_rot_l	elbow_flex_l	pro_sup_l	wrist_flex_l	wrist_dev_l
     10.50000000	     -3.55199228	     27.17508034	     76.32905140	      0.49813542	      0.99926506	     -0.96982770	     -2.60606712	    -10.29742086	     14.67422696	     70.10365709	      1.22353963	      6.66893498	      0.00000000	      0.00000000	    -24.12315700	      7.62142768	    -15.93701088	     12.97078826	      0.22638296	     17.51718695	      0.00000000	      0.00000000	    -40.18443781	    -10.82665546	      1.35130805	      5.98119885	    -10.35813680	      5.19928617	    135.27814040	     85.43286031	      0.00000000	      0.00000000	      5.08121949	     -9.75070138	      3.75696878	    136.52672062	     80.70989123	      0.00000000	      0.00000000
     10.51000000	     -3.14703404	     26.77182856	     76.30548007	      0.49729081	      1.00048580	     -0.96827959	     -0.77256127	     -9.43932795	     14.53491921	     70.72863504	      1.23444756	      6.92645860	      0.00000000	      0.00000000	    -25.03261927	      7.51150926	    -15.73528202	     11.86724870	      0.20712256	     17.47744960	      0.00000000	      0.00000000	    -39.81482139	    -10.31050269	      1.29153271	      5.69502847	     -9.96662796	      5.10242070	    135.25277287	     85.35883127	      0.00000000	      0.00000000	      4.81005770	     -9.66448492	      3.72087968	    136.54330087	     80.56907270	      0.00000000	      0.00000000
     10.52000000	     -2.82168959	     26.30851426	     76.40273579	      0.49635999	      1.00149669	     -0.96701366	      1.03274367	     -8.75372797	     14.14161354	     70.93176069	      1.23799277	      7.29792638	      0.00000000	      0.00000000	    -25.85678136	      7.40835334	    -15.70987143	     10.78045578	      0.18815445	     17.34289533	      0.00000000	      0.00000000	    -39.36976528	     -9.79657239	      1.14870116	      5.36349669	     -9.60857141	      4.93173895	    135.27179192	     85.27130011	      0.00000000	      0.00000000	      4.46692799	     -9.58042142	      3.64012021	    136.60925570	     80.45036591	      0.00000000	      0.00000000
     10.53000000	     -2.48187372	     25.91109254	     76.32392280	      0.49569720	      1.00242419	     -0.96574166	      2.74857964	     -8.08138948	     13.91239300	     70.77277271	      1.23521790	      8.06462377	      0.00000000	      0.00000000	    -26.88574297	      7.43584738	    -15.54430529	      9.40991382	      0.16423398	     17.02057936	      0.00000000	      0.00000000	    -38.95705690	     -9.37692378	      1.16448515	      5.15471662	     -9.41129740	      4.72267801	    135.28983085	     85.30992226	      0.00000000	      0.00000000	      4.16103933	     -9.47792713	      3.58489695	    136.59820714	     80.31774192	      0.00000000	      0.00000000
     10.54000000	     -2.14759280	     25.35499204	     76.46235052	      0.49493789	      1.00320062	     -0.96461742	      4.45175989	     -7.42708899	     13.39714328	     70.18351576	      1.22493343	      8.59752005	      0.00000000	      0.00000000	    -27.61329802	      7.26604511	    -15.45449604	      8.34437972	      0.14563690	     16.79494611	      0.00000000	      0.00000000	    -38.45484432	     -8.80996172	      1.00362807	      4.90037048	     -9.16937271	      4.51498734	    135.32017318	     85.31961171	      0.00000000	      0.00000000	      3.73046958	     -9.43121883	      3.55943945	    136.63797647	     80.25900712	      0.00000000	      0.00000000
     10.55000000	     -1.79433239	     24.83153368	     76.53422843	      0.49425192	      1.00378676	     -0.96341685	      6.05522981	     -6.81086969	     12.88461854	     69.36227145	      1.21060001	      9.35606614	      0.00000000	      0.00000000	    -28.44401601	      7.13901049	    -15.18875452	      7.13008065	      0.12444338	     16.42828118	      0.00000000	      0.00000000	    -37.99276068	     -8.25329620	      0.90152976	      4.76162415	     -9.08518249	      4.36654436	    135.34148650	     85.43313038	      0.00000000	      0.00000000	      3.40207479	     -9.40147882	      3.44144866	    136.58863807	     80.23789835	      0.00000000	      0.00000000
     10.56000000	     -1.52902255	     24.22050197	     76.74365476	      0.49341369	      1.00415515	     -0.96194729	      7.68945476	     -6.31863249	     12.21644378	     68.19377335	      1.19020587	     10.00760799	      0.00000000	      0.00000000	    -28.97512424	      6.95198934	    -15.17743482	      6.21226163	      0.10842442	     16.18202547	      0.00000000	      0.00000000	    -37.52095460	     -7.69828930	      0.70369523	      4.67186857	     -9.00859643	      4.18389790	    135.37604563	     85.55144598	      0.00000000	      0.00000000	      3.13660483	     -9.40831673	      3.31959978	    136.59319065	     79.76447854	      0.00000000	      0.00000000
